<?xml version="1.0" encoding="UTF-8" standalone="no"?>
<!-- Created with Inkscape (http://www.inkscape.org/) -->

<svg
   width="1920"
   height="793.70081"
   viewBox="0 0 508 210"
   version="1.1"
   id="svg1"
   inkscape:version="1.3 (0e150ed, 2023-07-21)"
   sodipodi:docname="background.svg"
   xmlns:inkscape="http://www.inkscape.org/namespaces/inkscape"
   xmlns:sodipodi="http://sodipodi.sourceforge.net/DTD/sodipodi-0.dtd"
   xmlns="http://www.w3.org/2000/svg"
   xmlns:svg="http://www.w3.org/2000/svg">
  <sodipodi:namedview
     id="namedview1"
     pagecolor="#ffffff"
     bordercolor="#000000"
     borderopacity="0.25"
     inkscape:showpageshadow="2"
     inkscape:pageopacity="0.0"
     inkscape:pagecheckerboard="0"
     inkscape:deskcolor="#d1d1d1"
     inkscape:document-units="mm"
     inkscape:zoom="0.41601097"
     inkscape:cx="546.86058"
     inkscape:cy="550.46625"
     inkscape:window-width="1920"
     inkscape:window-height="1027"
     inkscape:window-x="0"
     inkscape:window-y="25"
     inkscape:window-maximized="0"
     inkscape:current-layer="layer1" />
  <defs
     id="defs1">
    <filter
       style="color-interpolation-filters:sRGB;"
       inkscape:label="Drop Shadow"
       id="filter39"
       x="-0.10172364"
       y="-0.039850015"
       width="1.2034473"
       height="1.0797">
      <feFlood
         result="flood"
         in="SourceGraphic"
         flood-opacity="0.10000000000000003"
         flood-color="rgb(0,0,0)"
         id="feFlood38" />
      <feGaussianBlur
         result="blur"
         in="SourceGraphic"
         stdDeviation="2.500000"
         id="feGaussianBlur38" />
      <feOffset
         result="offset"
         in="blur"
         dx="0.000000"
         dy="0.000000"
         id="feOffset38" />
      <feComposite
         result="comp1"
         operator="out"
         in="flood"
         in2="offset"
         id="feComposite38" />
      <feComposite
         result="comp2"
         operator="atop"
         in="comp1"
         in2="SourceGraphic"
         id="feComposite39" />
    </filter>
  </defs>
  <g
     inkscape:label="Layer 1"
     inkscape:groupmode="layer"
     id="layer1">
    <path
       stroke-width="1.63552"
       d="m 31.781735,58.096779 c -6.81423,0 -12.330517,5.520342 -12.330517,12.333286 0.0013,6.807653 5.517573,12.330467 12.330517,12.330467 6.806367,0 12.327896,-5.522814 12.327896,-12.330467 0,-6.81423 -5.521529,-12.333286 -12.327896,-12.333286 z M 18.161138,85.92419 c -8.7297437,0 -15.8723917,7.074601 -15.8723917,15.79252 v 38.24499 c 0,2.97663 2.343371,5.39458 5.32525,5.39458 2.9832027,0 5.3998237,-2.41533 5.3998237,-5.39458 v -34.48329 h 2.75028 c 0,0 0.06281,90.03337 0.06281,95.94736 0,3.99071 3.242238,7.23557 7.238141,7.23557 3.993282,0 7.228993,-3.24486 7.228993,-7.23557 V 145.7122 h 2.970099 v 55.71357 c 0,3.99071 3.235711,7.23557 7.236856,7.23557 3.995902,0 7.260395,-3.24486 7.260395,-7.23557 v -95.94736 h 2.783019 v 34.48329 c 0,2.97663 2.42052,5.39458 5.39848,5.39458 2.98321,0 5.32921,-2.41533 5.32921,-5.39458 v -38.24499 c 0,-8.717919 -7.14789,-15.79252 -15.869766,-15.79252 z"
       id="path1"
       style="fill:#000000;fill-opacity:0.24701196" />
    <path
       stroke-width="1.63552"
       d="m 94.299593,58.096779 c -6.81423,0 -12.330517,5.520342 -12.330517,12.333286 0.0013,6.807653 5.517573,12.330467 12.330517,12.330467 6.806367,0 12.327897,-5.522814 12.327897,-12.330467 0,-6.81423 -5.52153,-12.333286 -12.327897,-12.333286 z M 80.678996,85.92419 c -8.729744,0 -15.872392,7.074601 -15.872392,15.79252 v 38.24499 c 0,2.97663 2.343371,5.39458 5.32525,5.39458 2.983203,0 5.399824,-2.41533 5.399824,-5.39458 v -34.48329 h 2.75028 c 0,0 0.06281,90.03337 0.06281,95.94736 0,3.99071 3.242238,7.23557 7.238141,7.23557 3.993282,0 7.228993,-3.24486 7.228993,-7.23557 V 145.7122 h 2.970099 v 55.71357 c 0,3.99071 3.235711,7.23557 7.236859,7.23557 3.9959,0 7.26039,-3.24486 7.26039,-7.23557 v -95.94736 h 2.78302 v 34.48329 c 0,2.97663 2.42052,5.39458 5.39848,5.39458 2.98321,0 5.32921,-2.41533 5.32921,-5.39458 v -38.24499 c 0,-8.717919 -7.14789,-15.79252 -15.86976,-15.79252 z"
       id="path5"
       style="fill:#000000;fill-opacity:0.24701196" />
    <path
       stroke-width="1.63552"
       d="m 158.9248,58.096779 c -6.81423,0 -12.33052,5.520342 -12.33052,12.333286 0.001,6.807653 5.51757,12.330467 12.33052,12.330467 6.80636,0 12.32789,-5.522814 12.32789,-12.330467 0,-6.81423 -5.52153,-12.333286 -12.32789,-12.333286 z M 145.3042,85.92419 c -8.72975,0 -15.87239,7.074601 -15.87239,15.79252 v 38.24499 c 0,2.97663 2.34337,5.39458 5.32525,5.39458 2.9832,0 5.39982,-2.41533 5.39982,-5.39458 v -34.48329 h 2.75028 c 0,0 0.0628,90.03337 0.0628,95.94736 0,3.99071 3.24224,7.23557 7.23814,7.23557 3.99328,0 7.22899,-3.24486 7.22899,-7.23557 V 145.7122 h 2.9701 v 55.71357 c 0,3.99071 3.23571,7.23557 7.23686,7.23557 3.9959,0 7.26039,-3.24486 7.26039,-7.23557 v -95.94736 h 2.78302 v 34.48329 c 0,2.97663 2.42052,5.39458 5.39848,5.39458 2.98321,0 5.32921,-2.41533 5.32921,-5.39458 v -38.24499 c 0,-8.717919 -7.14789,-15.79252 -15.86976,-15.79252 z"
       id="path6"
       style="fill:#000000;fill-opacity:0.24701196" />
    <path
       stroke-width="1.63552"
       d="m 222.84755,58.096779 c -6.81423,0 -12.33052,5.520342 -12.33052,12.333286 0.001,6.807653 5.51757,12.330467 12.33052,12.330467 6.80636,0 12.32789,-5.522814 12.32789,-12.330467 0,-6.81423 -5.52153,-12.333286 -12.32789,-12.333286 z m -13.6206,27.827411 c -8.72975,0 -15.87239,7.074601 -15.87239,15.79252 v 38.24499 c 0,2.97663 2.34337,5.39458 5.32525,5.39458 2.9832,0 5.39982,-2.41533 5.39982,-5.39458 v -34.48329 h 2.75028 c 0,0 0.0628,90.03337 0.0628,95.94736 0,3.99071 3.24224,7.23557 7.23814,7.23557 3.99328,0 7.22899,-3.24486 7.22899,-7.23557 V 145.7122 h 2.9701 v 55.71357 c 0,3.99071 3.23571,7.23557 7.23686,7.23557 3.9959,0 7.26039,-3.24486 7.26039,-7.23557 v -95.94736 h 2.78302 v 34.48329 c 0,2.97663 2.42052,5.39458 5.39848,5.39458 2.98321,0 5.32921,-2.41533 5.32921,-5.39458 v -38.24499 c 0,-8.717919 -7.14789,-15.79252 -15.86976,-15.79252 z"
       id="path7"
       style="fill:#000000;fill-opacity:0.24701196" />
    <path
       stroke-width="1.63552"
       d="m 350.30394,58.096779 c -6.81423,0 -12.33052,5.520342 -12.33052,12.333286 0.001,6.807653 5.51757,12.330467 12.33052,12.330467 6.80636,0 12.32789,-5.522814 12.32789,-12.330467 0,-6.81423 -5.52153,-12.333286 -12.32789,-12.333286 z m -13.6206,27.827411 c -8.72975,0 -15.87239,7.074601 -15.87239,15.79252 v 38.24499 c 0,2.97663 2.34337,5.39458 5.32525,5.39458 2.9832,0 5.39982,-2.41533 5.39982,-5.39458 v -34.48329 h 2.75028 c 0,0 0.0628,90.03337 0.0628,95.94736 0,3.99071 3.24224,7.23557 7.23814,7.23557 3.99328,0 7.22899,-3.24486 7.22899,-7.23557 V 145.7122 h 2.9701 v 55.71357 c 0,3.99071 3.23571,7.23557 7.23686,7.23557 3.9959,0 7.26039,-3.24486 7.26039,-7.23557 v -95.94736 h 2.78302 v 34.48329 c 0,2.97663 2.42052,5.39458 5.39848,5.39458 2.98321,0 5.32921,-2.41533 5.32921,-5.39458 v -38.24499 c 0,-8.717919 -7.14789,-15.79252 -15.86976,-15.79252 z"
       id="path8"
       style="fill:#daa520;fill-opacity:0.445783;stroke-width:1.636;stroke-dasharray:none" />
    <path
       stroke-width="1.63552"
       d="m 286.45697,57.394331 c -6.81423,0 -12.33052,5.520342 -12.33052,12.333286 0.001,6.807653 5.51757,12.330467 12.33052,12.330467 6.80636,0 12.32789,-5.522814 12.32789,-12.330467 0,-6.81423 -5.52153,-12.333286 -12.32789,-12.333286 z m -13.6206,27.827411 c -8.72975,0 -15.87239,7.074601 -15.87239,15.792518 v 38.24499 c 0,2.97663 2.34337,5.39458 5.32525,5.39458 2.9832,0 5.39982,-2.41533 5.39982,-5.39458 v -34.48329 h 2.75028 c 0,0 0.0628,90.03337 0.0628,95.94736 0,3.99071 3.24224,7.23557 7.23814,7.23557 3.99328,0 7.22899,-3.24486 7.22899,-7.23557 v -55.71357 h 2.9701 v 55.71357 c 0,3.99071 3.23571,7.23557 7.23686,7.23557 3.9959,0 7.26039,-3.24486 7.26039,-7.23557 v -95.94736 h 2.78302 v 34.48329 c 0,2.97663 2.42052,5.39458 5.39848,5.39458 2.98321,0 5.32921,-2.41533 5.32921,-5.39458 v -38.24499 c 0,-8.717917 -7.14789,-15.792518 -15.86976,-15.792518 z"
       id="path9"
       style="fill:#000000;fill-opacity:0.250996" />
    <path
       stroke-width="1.63552"
       d="m 413.91336,56.691883 c -6.81423,0 -12.33052,5.520342 -12.33052,12.333286 0.001,6.807653 5.51757,12.330467 12.33052,12.330467 6.80636,0 12.32789,-5.522814 12.32789,-12.330467 0,-6.81423 -5.52153,-12.333286 -12.32789,-12.333286 z m -13.6206,27.827411 c -8.72975,0 -15.87239,7.074601 -15.87239,15.792516 v 38.24499 c 0,2.97663 2.34337,5.39458 5.32525,5.39458 2.9832,0 5.39982,-2.41533 5.39982,-5.39458 v -34.48329 h 2.75028 c 0,0 0.0628,90.03337 0.0628,95.94736 0,3.99071 3.24224,7.23557 7.23814,7.23557 3.99328,0 7.22899,-3.24486 7.22899,-7.23557 V 144.3073 h 2.9701 v 55.71357 c 0,3.99071 3.23571,7.23557 7.23686,7.23557 3.9959,0 7.26039,-3.24486 7.26039,-7.23557 v -95.94736 h 2.78302 v 34.48329 c 0,2.97663 2.42052,5.39458 5.39848,5.39458 2.98321,0 5.32921,-2.41533 5.32921,-5.39458 v -38.24499 c 0,-8.717915 -7.14789,-15.792516 -15.86976,-15.792516 z"
       id="path10"
       style="fill:#000000;fill-opacity:0.25099602" />
    <path
       stroke-width="1.63552"
       d="m 477.13367,56.691883 c -6.81423,0 -12.33052,5.520342 -12.33052,12.333286 10e-4,6.807653 5.51757,12.330467 12.33052,12.330467 6.80636,0 12.32789,-5.522814 12.32789,-12.330467 0,-6.81423 -5.52153,-12.333286 -12.32789,-12.333286 z m -13.6206,27.827411 c -8.72975,0 -15.87239,7.074601 -15.87239,15.792516 v 38.24499 c 0,2.97663 2.34337,5.39458 5.32525,5.39458 2.9832,0 5.39982,-2.41533 5.39982,-5.39458 v -34.48329 h 2.75028 c 0,0 0.0628,90.03337 0.0628,95.94736 0,3.99071 3.24224,7.23557 7.23814,7.23557 3.99328,0 7.22899,-3.24486 7.22899,-7.23557 V 144.3073 h 2.9701 v 55.71357 c 0,3.99071 3.23571,7.23557 7.23686,7.23557 3.9959,0 7.26039,-3.24486 7.26039,-7.23557 v -95.94736 h 2.78302 v 34.48329 c 0,2.97663 2.42052,5.39458 5.39848,5.39458 2.98321,0 5.32921,-2.41533 5.32921,-5.39458 v -38.24499 c 0,-8.717915 -7.14789,-15.792516 -15.86976,-15.792516 z"
       id="path11"
       style="fill:#000000;fill-opacity:0.25099602" />
  </g>
</svg>
