<?xml version="1.0" encoding="UTF-8" standalone="no"?>
<!-- Created with Inkscape (http://www.inkscape.org/) -->

<svg
   width="800"
   height="600"
   viewBox="0 0 211.66666 158.75"
   version="1.1"
   id="svg1"
   inkscape:version="1.3 (0e150ed, 2023-07-21)"
   sodipodi:docname="mobile-background.svg"
   xmlns:inkscape="http://www.inkscape.org/namespaces/inkscape"
   xmlns:sodipodi="http://sodipodi.sourceforge.net/DTD/sodipodi-0.dtd"
   xmlns="http://www.w3.org/2000/svg"
   xmlns:svg="http://www.w3.org/2000/svg">
  <sodipodi:namedview
     id="namedview1"
     pagecolor="#ffffff"
     bordercolor="#000000"
     borderopacity="0.25"
     inkscape:showpageshadow="2"
     inkscape:pageopacity="0.0"
     inkscape:pagecheckerboard="0"
     inkscape:deskcolor="#d1d1d1"
     inkscape:document-units="mm"
     inkscape:zoom="0.33805158"
     inkscape:cx="412.65892"
     inkscape:cy="522.10967"
     inkscape:window-width="1920"
     inkscape:window-height="1080"
     inkscape:window-x="0"
     inkscape:window-y="0"
     inkscape:window-maximized="0"
     inkscape:current-layer="layer1" />
  <defs
     id="defs1" />
  <g
     inkscape:label="Layer 1"
     inkscape:groupmode="layer"
     id="layer1">
    <path
       stroke-width="1.63552"
       d="m 87.599014,4.4646081 c -6.81423,0 -12.33052,5.520342 -12.33052,12.3332859 10e-4,6.807653 5.51757,12.330467 12.33052,12.330467 6.80636,0 12.32789,-5.522814 12.32789,-12.330467 0,-6.8142299 -5.52153,-12.3332859 -12.32789,-12.3332859 z m -13.6206,27.8274109 c -8.72975,0 -15.87239,7.074601 -15.87239,15.79252 V 86.32953 c 0,2.97663 2.34337,5.39458 5.32525,5.39458 2.9832,0 5.39982,-2.41533 5.39982,-5.39458 V 51.846239 h 2.75028 c 0,0 0.0628,90.033371 0.0628,95.947361 0,3.99071 3.24224,7.23557 7.23814,7.23557 3.99328,0 7.22899,-3.24486 7.22899,-7.23557 V 92.08003 h 2.9701 v 55.71357 c 0,3.99071 3.23571,7.23557 7.23686,7.23557 3.995896,0 7.260386,-3.24486 7.260386,-7.23557 V 51.846239 h 2.78302 V 86.32953 c 0,2.97663 2.42052,5.39458 5.39848,5.39458 2.98321,0 5.32921,-2.41533 5.32921,-5.39458 V 48.084539 c 0,-8.717919 -7.14789,-15.79252 -15.86976,-15.79252 z"
       id="path7"
       style="fill:#000000;fill-opacity:0.247012" />
    <path
       stroke-width="1.63552"
       d="m 150.81932,4.4646081 c -6.81423,0 -12.33052,5.520342 -12.33052,12.3332859 0.001,6.807653 5.51757,12.330467 12.33052,12.330467 6.80636,0 12.32789,-5.522814 12.32789,-12.330467 0,-6.8142299 -5.52153,-12.3332859 -12.32789,-12.3332859 z m -13.6206,27.8274109 c -8.72975,0 -15.87239,7.074601 -15.87239,15.79252 V 86.32953 c 0,2.97663 2.34337,5.39458 5.32525,5.39458 2.9832,0 5.39982,-2.41533 5.39982,-5.39458 V 51.846239 h 2.75028 c 0,0 0.0628,90.033371 0.0628,95.947361 0,3.99071 3.24224,7.23557 7.23814,7.23557 3.99328,0 7.22899,-3.24486 7.22899,-7.23557 V 92.08003 h 2.9701 v 55.71357 c 0,3.99071 3.23571,7.23557 7.23686,7.23557 3.9959,0 7.26039,-3.24486 7.26039,-7.23557 V 51.846239 h 2.78302 V 86.32953 c 0,2.97663 2.42052,5.39458 5.39848,5.39458 2.98321,0 5.32921,-2.41533 5.32921,-5.39458 V 48.084539 c 0,-8.717919 -7.14789,-15.79252 -15.86976,-15.79252 z"
       id="path8"
       style="fill:#daa520;fill-opacity:0.445783;stroke-width:1.636;stroke-dasharray:none" />
    <path
       stroke-width="1.63552"
       d="m 215.44452,3.7621601 c -6.81423,0 -12.33052,5.520342 -12.33052,12.3332859 0.001,6.807653 5.51757,12.330467 12.33052,12.330467 6.80636,0 12.32789,-5.522814 12.32789,-12.330467 0,-6.8142299 -5.52153,-12.3332859 -12.32789,-12.3332859 z m -13.6206,27.8274109 c -8.72975,0 -15.87239,7.074601 -15.87239,15.792518 V 85.62708 c 0,2.97663 2.34337,5.39458 5.32525,5.39458 2.9832,0 5.39982,-2.41533 5.39982,-5.39458 V 51.143789 h 2.75028 c 0,0 0.0628,90.033371 0.0628,95.947361 0,3.99071 3.24224,7.23557 7.23814,7.23557 3.99328,0 7.22899,-3.24486 7.22899,-7.23557 V 91.37758 h 2.9701 v 55.71357 c 0,3.99071 3.23571,7.23557 7.23686,7.23557 3.9959,0 7.26039,-3.24486 7.26039,-7.23557 V 51.143789 h 2.78302 V 85.62708 c 0,2.97663 2.42052,5.39458 5.39848,5.39458 2.98321,0 5.32921,-2.41533 5.32921,-5.39458 V 47.382089 c 0,-8.717917 -7.14789,-15.792518 -15.86976,-15.792518 z"
       id="path9"
       style="fill:#000000;fill-opacity:0.250996" />
    <path
       stroke-width="1.63552"
       d="m 22.90734,3.7621601 c -6.81423,0 -12.33052,5.520342 -12.33052,12.3332859 10e-4,6.807653 5.51757,12.330467 12.33052,12.330467 6.80636,0 12.32789,-5.522814 12.32789,-12.330467 0,-6.8142299 -5.52153,-12.3332859 -12.32789,-12.3332859 z M 9.2867403,31.589571 c -8.72974998,0 -15.87239,7.074601 -15.87239,15.792518 V 85.62708 c 0,2.97663 2.34337,5.39458 5.32525,5.39458 2.9832,0 5.39982,-2.41533 5.39982,-5.39458 V 51.143789 h 2.75028 c 0,0 0.0628,90.033371 0.0628,95.947361 0,3.99071 3.2422397,7.23557 7.2381397,7.23557 3.99328,0 7.22899,-3.24486 7.22899,-7.23557 V 91.37758 h 2.9701 v 55.71357 c 0,3.99071 3.23571,7.23557 7.23686,7.23557 3.9959,0 7.26039,-3.24486 7.26039,-7.23557 V 51.143789 H 41.67 V 85.62708 c 0,2.97663 2.42052,5.39458 5.39848,5.39458 2.98321,0 5.32921,-2.41533 5.32921,-5.39458 V 47.382089 c 0,-8.717917 -7.14789,-15.792518 -15.86976,-15.792518 z"
       id="path1"
       style="fill:#000000;fill-opacity:0.250996" />
  </g>
</svg>
