<?xml version="1.0" encoding="UTF-8" standalone="no"?>
<svg
   version="1.1"
   id="Layer_1"
   x="0px"
   y="0px"
   viewBox="0 0 2669.9053 1668.6908"
   enable-background="new 0 0 2669.9053 1668.6908"
   xml:space="preserve"
   sodipodi:docname="mynameis.svg"
   inkscape:version="1.3 (0e150ed, 2023-07-21)"
   xmlns:inkscape="http://www.inkscape.org/namespaces/inkscape"
   xmlns:sodipodi="http://sodipodi.sourceforge.net/DTD/sodipodi-0.dtd"
   xmlns="http://www.w3.org/2000/svg"
   xmlns:svg="http://www.w3.org/2000/svg"><defs
   id="defs4" /><sodipodi:namedview
   id="namedview4"
   pagecolor="#ffffff"
   bordercolor="#000000"
   borderopacity="0.25"
   inkscape:showpageshadow="2"
   inkscape:pageopacity="0.0"
   inkscape:pagecheckerboard="0"
   inkscape:deskcolor="#d1d1d1"
   inkscape:zoom="0.36597511"
   inkscape:cx="1370.3118"
   inkscape:cy="558.78117"
   inkscape:window-width="1920"
   inkscape:window-height="1080"
   inkscape:window-x="0"
   inkscape:window-y="0"
   inkscape:window-maximized="0"
   inkscape:current-layer="g4" />&#10;<g
   id="g4">&#10;	<g
   id="g3">&#10;		<path
   fill="#FF0000"
   d="M2614.9526,274.1353c0-132.4324-107.3574-239.79-239.79-239.79H294.7426    c-132.4324,0-239.7901,107.3576-239.7901,239.79v327.2101h2559.71v804.9664c0.1885-3.8958,0.29-7.8141,0.29-11.7565V274.1353z"
   id="path1"
   style="fill:#aa4a44;fill-opacity:1" />&#10;		<path
   fill="#FF0000"
   d="M294.7426,1634.3453h2080.4199c88.584,0,165.9395-48.0404,207.4595-119.4835H87.2832    C128.8032,1586.3049,206.1589,1634.3453,294.7426,1634.3453z"
   id="path2"
   style="fill:#aa4a44;fill-opacity:1" />&#10;		<path
   fill="#FFFFFF"
   d="M54.9526,601.3454v793.2099c0,43.8486,11.7786,84.9424,32.3306,120.3065h2495.3389    c18.7041-32.1846,30.1367-69.1156,32.0405-108.55V601.3454H54.9526z"
   id="path3" />&#10;	</g>&#10;	<text
   id="text4"
   x="958.74915"
   y="494.49643"
   style="font-size:133.333px"><tspan
     x="958.74915"
     y="494.49643"
     fill="#ffffff"
     font-family="Arial-BoldMT"
     font-size="330px"
     id="tspan3"
     style="font-style:normal;font-variant:normal;font-weight:normal;font-stretch:normal;font-size:133.333px;font-family:Arial;-inkscape-font-specification:Arial">my name Is</tspan></text>&#10;<text
   id="text6"
   style="display:inline"
   x="800.26843"
   y="338.74814"><tspan
     x="800.26843"
     y="338.74814"
     fill="#ffffff"
     font-family="Arial-BoldMT"
     font-size="330px"
     id="tspan5">HELLO</tspan><tspan
     x="919.20392"
     y="530.74817"
     fill="#ffffff"
     font-family="Arial-BoldMT"
     font-size="160px"
     id="tspan6" /></text></g>&#10;</svg>
